<svg aria-hidden="true" style="position: absolute; width: 0; height: 0; overflow: hidden;" version="1.1" xmlns="http://www.w3.org/2000/svg" xmlns:xlink="http://www.w3.org/1999/xlink">
<defs>
<symbol id="icon-mail" viewBox="0 0 43 32">
<path fill="#757575" style="fill: var(--color1, #757575)" d="M38.688 0h-34.685c-2.207 0-4.002 1.796-4.002 4.002v24.013c0 2.207 1.796 4.002 4.002 4.002h34.685c2.207 0 4.002-1.796 4.002-4.002v-24.013c0-2.207-1.796-4.002-4.002-4.002zM38.688 2.668c0.181 0 0.355 0.037 0.512 0.104l-17.855 15.475-17.855-15.475c0.151-0.065 0.327-0.104 0.512-0.104h34.686zM38.688 29.349h-34.685c-0.737 0-1.334-0.597-1.334-1.334v0-22.425l17.802 15.43c0.233 0.203 0.54 0.327 0.875 0.327s0.642-0.124 0.877-0.328l-0.002 0.001 17.802-15.43v22.425c0 0.737-0.597 1.334-1.334 1.334v0z"></path>
</symbol>
<symbol id="icon-tel" viewBox="0 0 20 32">
<path fill="#757575" style="fill: var(--color1, #757575)" d="M17.015 0h-14.008c-1.655 0-3.002 1.347-3.002 3.002v26.014c0 1.655 1.347 3.002 3.002 3.002h14.008c1.655 0 3.002-1.347 3.002-3.002v-26.014c0-1.655-1.347-3.002-3.002-3.002zM3.007 2.001h14.008c0.553 0 1.001 0.448 1.001 1.001v0 21.011h-16.009v-21.011c0-0.553 0.448-1.001 1.001-1.001v0zM17.015 30.016h-14.008c-0.553 0-1.001-0.448-1.001-1.001v0-3.002h16.009v3.002c0 0.553-0.448 1.001-1.001 1.001v0z"></path>
<path fill="#757575" style="fill: var(--color1, #757575)" d="M4.716 27.493c0.18 0.164 0.293 0.399 0.293 0.66s-0.113 0.497-0.292 0.66l-0.001 0.001c-0.186 0.17-0.435 0.275-0.708 0.275s-0.522-0.104-0.709-0.275l0.001 0.001c-0.18-0.164-0.293-0.399-0.293-0.66s0.113-0.497 0.292-0.66l0.001-0.001c0.186-0.17 0.435-0.275 0.708-0.275s0.522 0.104 0.709 0.275l-0.001-0.001z"></path>
</symbol>
</defs>
</svg>
